<svg t="1649643182437" class="icon" viewBox="0 0 1024 1024" version="1.1" xmlns="http://www.w3.org/2000/svg" p-id="12664" width="200" height="200"><path d="M831.244 300.254c-0.984 0-1.984-0.144-2.972-0.454L232.726 114.638a10 10 0 1 1 5.938-19.098l595.546 185.162a10 10 0 0 1 6.58 12.518 10.004 10.004 0 0 1-9.546 7.034z" fill="#DB9C2E" p-id="12665"></path><path d="M891.884 325.49H255.542v-48.16h636.342a10 10 0 0 1 10 10v28.16a10 10 0 0 1-10 10z" fill="#A56021" p-id="12666"></path><path d="M233.802 980.238H142.116c-11.046 0-20-8.954-20-20V63.762c0-11.046 8.954-20 20-20h91.688c11.046 0 20 8.954 20 20v896.476c-0.002 11.046-8.956 20-20.002 20z" fill="#FFEACF" p-id="12667"></path><path d="M693.664 325.49h46.276v246.416h-46.276zM416.012 325.49h46.276v246.416h-46.276z" fill="#A56021" p-id="12668"></path><path d="M335.542 297.328h566.342v-10a10 10 0 0 0-10-10H255.542v48.16h80v-28.16zM436.012 345.49h26.276v-20h-46.276v246.416h20zM713.664 345.49h26.276v-20h-46.276v246.416h20z" fill="#8C4C17" p-id="12669"></path><path d="M586.652 666.058m-274.182 0a274.182 274.182 0 1 0 548.364 0 274.182 274.182 0 1 0-548.364 0Z" fill="#CCC033" p-id="12670"></path><path d="M586.654 666.058m-230.798 0a230.798 230.798 0 1 0 461.596 0 230.798 230.798 0 1 0-461.596 0Z" fill="#FCE575" p-id="12671"></path><path d="M392.472 666.058c0-137.838 101.718-251.902 234.182-271.268a276.534 276.534 0 0 0-40-2.914c-151.426 0-274.182 122.754-274.182 274.182S435.226 940.24 586.654 940.24c13.588 0 26.94-1.004 40-2.914-132.464-19.366-234.182-133.432-234.182-271.268z" fill="#99AF17" p-id="12672"></path><path d="M489.668 456.656c-78.942 36.708-133.812 116.762-133.812 209.4 0 92.64 54.872 172.692 133.812 209.4-59.45-50.29-97.196-125.434-97.196-209.4 0-83.966 37.746-159.11 97.196-209.4z" fill="#FFDF74" p-id="12673"></path><path d="M776.982 633.932c-19.796-23.12-60.768-20.524-91.514 5.8-30.746 26.324-39.622 66.406-19.828 89.528 19.796 23.12 60.768 20.524 91.514-5.8 30.746-26.324 39.622-66.406 19.828-89.528z m-31.978 75.338c-13.724 11.75-30.64 18.088-45.25 16.956-5.92-0.458-14.184-2.412-19.922-9.116-7.64-8.924-6.406-20.98-4.99-27.374 2.834-12.792 11.134-25.846 22.778-35.814 13.724-11.75 30.638-18.088 45.25-16.956 5.92 0.458 14.184 2.412 19.924 9.116 12.84 15.002 4.694 43.938-17.79 63.188z" fill="#F9BB32" p-id="12674"></path><path d="M717.552 724.256c-6.066 1.704-12.106 2.41-17.798 1.97-5.92-0.458-14.184-2.412-19.922-9.116-7.64-8.924-6.406-20.98-4.99-27.374 2.834-12.792 11.134-25.846 22.778-35.814 13.724-11.75 30.638-18.088 45.25-16.956 3.756 0.29 8.452 1.188 12.85 3.514 0.59-5.364 0.902-10.812 0.902-16.334v-3.44c-21.09-6.684-48.816-0.096-71.152 19.026-30.746 26.324-39.622 66.406-19.828 89.528 7.322 8.552 17.544 13.574 29.07 15.19a148.628 148.628 0 0 0 22.84-20.194z" fill="#DB9C2E" p-id="12675"></path><path d="M582.6 771.974c-81.644 0-147.83-66.186-147.83-147.83v-8.148a8.73 8.73 0 0 1 8.73-8.73h278.2a8.73 8.73 0 0 1 8.73 8.73v8.148c0 81.644-66.186 147.83-147.83 147.83z" fill="#F9BB32" p-id="12676"></path><path d="M626.252 763.244h-0.006c-81.644 0-147.828-66.184-147.828-147.828v-8.152h-34.92a8.73 8.73 0 0 0-8.73 8.73v8.152c0 81.644 66.184 147.828 147.828 147.828h0.006a147.534 147.534 0 0 0 50.624-8.898 152.13 152.13 0 0 1-6.974 0.168z" fill="#DB9C2E" p-id="12677"></path><path d="M655.098 733.778a12 12 0 0 1-4.98-22.922c37.28-16.98 44.268-71.15 44.334-71.696 0.798-6.57 6.786-11.25 13.338-10.48a11.994 11.994 0 0 1 10.496 13.306c-0.326 2.77-8.548 68.088-58.22 90.708a11.938 11.938 0 0 1-4.968 1.084z" fill="#FFC34C" p-id="12678"></path><path d="M690.01 808.932H475.188c-16.568 0-30-13.432-30-30v-1.428h274.822v1.428c0 16.568-13.43 30-30 30z" fill="#BF6C0D" p-id="12679"></path><path d="M480.108 798.454h239.64a13.14 13.14 0 0 0 0.262-2.62v-18.334H445.188v18.334a13.096 13.096 0 0 0 13.096 13.096h21.826v-10.476z" fill="#A56021" p-id="12680"></path><path d="M729.52 788.852H432.158a15.712 15.712 0 0 1-12.864-6.69l-10.642-15.168c-1.624-2.314 0.032-5.498 2.858-5.498h341.246c2.992 0 4.598 3.518 2.638 5.78l-14 16.152a15.704 15.704 0 0 1-11.874 5.424z" fill="#BF6C0D" p-id="12681"></path><path d="M548.884338 570.423462a71.316 53.928 44.445 1 0 75.523389-77.000873 71.316 53.928 44.445 1 0-75.523389 77.000873Z" fill="#A56021" p-id="12682"></path><path d="M563.58 555.53c-24.766-24.24-32.34-57.808-19.624-80.034a41.428 41.428 0 0 0-8.27 6.538c-20.816 21.302-14.872 60.904 13.276 88.454 28.148 27.55 67.842 32.614 88.658 11.312a41.56 41.56 0 0 0 6.348-8.42c-21.92 13.218-55.622 6.39-80.388-17.85z" fill="#8C4C17" p-id="12683"></path><path d="M633.548 584.814h-0.054c-37.566-0.282-50.78-28.512-52.518-43.4-2.076-19.924-8.146-33.79-18.052-41.296-9.924-7.524-20.582-5.948-20.688-5.934-3.812 0.676-7.428-1.904-8.084-5.714a7 7 0 0 1 5.714-8.082c0.672-0.112 16.638-2.7 31.514 8.572 13.118 9.942 21.028 27.072 23.512 50.918 0.146 1.134 4.298 30.68 38.708 30.938a7 7 0 0 1-0.052 13.998z" fill="#8C4C17" p-id="12684"></path><path d="M541.052 662.372m-29.068 0a29.068 29.068 0 1 0 58.136 0 29.068 29.068 0 1 0-58.136 0Z" fill="#DB9C2E" p-id="12685"></path></svg>