<svg t="1649644014444" class="icon" viewBox="0 0 1024 1024" version="1.1" xmlns="http://www.w3.org/2000/svg" p-id="13520" width="200" height="200"><path d="M529.7 501.9m-450 0a450 450 0 1 0 900 0 450 450 0 1 0-900 0Z" fill="#FFFFFF" opacity=".8" p-id="13521"></path><path d="M453.4 658.4c0 6.8-3.6 13.1-9.5 16.5-5.9 3.4-13.1 3.4-19 0s-9.5-9.7-9.5-16.5v-104c0.1-16.3 6.4-31.9 17.7-43.6 11.2-11.5 26.5-17.9 42.5-17.9h109c16 0.1 31.3 6.5 42.5 17.9 11.2 11.8 17.4 27.4 17.4 43.6v165.5c0.1 18.8-7.1 36.9-20.1 50.5-12.9 13.3-30.6 20.9-49.1 21H382c-22 0-43-9-58.2-24.8a85.12 85.12 0 0 1-24-59.6V505.3h-68.7c-5.1 0-10-2-13.6-5.7-3.6-3.6-5.6-8.5-5.5-13.6 0-6.2 2.8-12 7.7-15.7l299.1-254.6c7.1-6.3 17.7-6.3 24.8 0l296 254.9c6.3 5.2 8.6 13.7 5.9 21.4-2.7 7.7-9.9 12.8-18.1 12.9h-67.3v233.4c0.6 14.4-4.8 28.4-14.9 38.6-9.3 9.7-22.2 15.1-35.6 15.2h-5c-5.1-0.1-10-2.2-13.5-5.9s-5.4-8.6-5.3-13.7c-0.1-5 1.9-9.9 5.4-13.5 3.5-3.6 8.3-5.7 13.4-5.8h5c3.4 0 6.6-1.4 8.8-3.9 2.4-2.5 3.7-5.7 3.9-9.1V486c-0.1-5.1 1.8-10 5.3-13.7 3.5-3.7 8.4-5.8 13.5-5.9h34.5L531 255.9 282.7 466.4h34.8c5.1 0.1 10 2.2 13.5 5.9s5.4 8.6 5.3 13.7v220.7c0 12 4.7 23.5 13.2 32 8.1 8.6 19.4 13.4 31.2 13.5h193.1c8.4-0.1 16.5-3.6 22.3-9.7 6.1-6.1 9.5-14.3 9.4-22.9V554.1c0-6-2.4-11.8-6.6-16-4-4.3-9.6-6.7-15.4-6.6h-108c-5.9 0-11.6 2.4-15.7 6.6-4.1 4.3-6.4 10-6.3 16v104.3z m0 0" fill="#83CDD9" p-id="13522"></path></svg>