<svg t="1650274727108" class="icon" viewBox="0 0 1024 1024" version="1.1" xmlns="http://www.w3.org/2000/svg" p-id="4069" width="200" height="200"><path d="M549.376 662.528H156.672c-19.456 0-35.328-15.872-35.328-35.328V619.52c0-19.456 15.872-35.328 35.328-35.328h392.704c19.456 0 35.328 15.872 35.328 35.328v7.68c0 19.456-15.872 35.328-35.328 35.328z" fill="#E3EEFF" p-id="4070"></path><path d="M546.816 801.28h-5.632c-38.4 0-69.632-31.232-69.632-69.632s31.232-69.632 69.632-69.632h5.632V583.68H186.368v78.336h131.584c38.4 0 69.632 31.232 69.632 69.632s-31.232 69.632-69.632 69.632H186.368v78.336h360.448v-78.336z" fill="#E3EEFF" p-id="4071"></path><path d="M568.832 465.408c0-14.336-11.264-25.6-25.088-26.112H285.696c-14.336 0-26.112 11.776-26.112 26.112S271.36 491.52 285.696 491.52h104.448c25.6 0 46.592 20.992 46.592 46.592s-20.992 46.592-46.592 46.592H302.08v52.224h240.64v-52.224h-3.584c-25.6 0-46.592-20.992-46.592-46.592s20.992-46.592 46.592-46.592h4.096c14.336-0.512 25.6-11.776 25.6-26.112zM712.704 801.28H160.256c-21.504 0-38.912 17.408-38.912 38.912 0 21.504 17.408 38.912 38.912 38.912h552.448v-77.824zM727.04 801.28h33.28v78.336H727.04zM800.768 801.28h21.504v78.336h-21.504zM882.688 801.28h-49.152v78.336h49.152c21.504 0 38.912-17.408 38.912-38.912 0-22.016-17.408-39.424-38.912-39.424z" fill="#E3EEFF" p-id="4072"></path><path d="M911.36 739.84h-35.84c-2.56 0-4.096-2.048-4.096-4.096 0-2.56 2.048-4.096 4.096-4.096h35.84c2.56 0 4.096 2.048 4.096 4.096 0 2.56-1.536 4.096-4.096 4.096z" fill="#2B77EF" p-id="4073"></path><path d="M893.44 757.76c-2.56 0-4.096-2.048-4.096-4.096v-35.84c0-2.56 2.048-4.096 4.096-4.096s4.096 2.048 4.096 4.096v35.84c0 2.56-1.536 4.096-4.096 4.096zM142.336 702.464h-35.84c-2.56 0-4.096-2.048-4.096-4.096 0-2.56 2.048-4.096 4.096-4.096h35.84c2.56 0 4.096 2.048 4.096 4.096 0.512 2.048-1.536 4.096-4.096 4.096z" fill="#2B77EF" p-id="4074"></path><path d="M124.416 720.384c-2.56 0-4.096-2.048-4.096-4.096v-35.84c0-2.56 2.048-4.096 4.096-4.096s4.096 2.048 4.096 4.096v35.84c0.512 2.048-1.536 4.096-4.096 4.096z" fill="#2B77EF" p-id="4075"></path><path d="M224.768 700.416c-8.192 0-15.872-2.56-22.016-8.192-7.168-6.144-11.264-14.336-12.288-23.552-1.536-18.944 12.288-35.84 31.232-37.376 18.944-1.536 35.84 12.288 37.376 31.232 1.024 9.216-2.048 17.92-7.68 25.088-6.144 7.168-14.336 11.264-23.552 12.288-1.024 0.512-2.048 0.512-3.072 0.512z m0.512-59.904h-2.048c-14.336 1.024-24.576 13.824-23.552 28.16 1.024 14.336 13.824 24.576 28.16 23.552 6.656-0.512 13.312-3.584 17.408-9.216 4.608-5.12 6.656-11.776 6.144-18.944-0.512-6.656-3.584-13.312-9.216-17.408-5.12-4.096-11.264-6.144-16.896-6.144zM528.384 242.688c-14.848 0-28.16-11.776-29.184-27.136-1.536-16.384 10.752-30.72 26.624-31.744 16.384-1.536 30.72 10.752 31.744 26.624 0.512 7.68-1.536 15.36-6.656 21.504-5.12 6.144-12.288 9.728-19.968 10.24-0.512 0.512-1.536 0.512-2.56 0.512z m0-50.176h-2.048c-11.264 1.024-19.968 11.264-18.944 22.528 1.024 11.264 11.264 19.968 22.528 18.944 5.632-0.512 10.752-3.072 14.336-7.168 3.584-4.096 5.12-9.728 4.608-15.36-0.512-10.752-9.728-18.944-20.48-18.944z" fill="#82A0F6" p-id="4076"></path><path d="M359.424 236.032c-2.56 0-4.096-2.048-4.096-4.096v-26.112l-18.432 18.432c-1.536 1.536-4.608 1.536-6.144 0s-1.536-4.608 0-6.144l18.432-18.432H322.56c-2.56 0-4.096-2.048-4.096-4.096 0-2.56 2.048-4.096 4.096-4.096h26.112l-18.432-18.432c-1.536-1.536-1.536-4.608 0-6.144s4.608-1.536 6.144 0l18.432 18.432v-26.112c0-2.56 2.048-4.096 4.096-4.096s4.096 2.048 4.096 4.096V184.32l18.432-18.432c1.536-1.536 4.608-1.536 6.144 0s1.536 4.608 0 6.144l-18.432 18.432h26.112c2.56 0 4.096 2.048 4.096 4.096 0 2.56-2.048 4.096-4.096 4.096h-26.112l18.432 18.432c1.536 1.536 1.536 4.608 0 6.144s-4.608 1.536-6.144 0L363.52 205.312v26.112c0 2.56-2.048 4.608-4.096 4.608z" fill="#82A0F6" p-id="4077"></path><path d="M888.32 613.376c-1.536 0-3.072-1.536-3.072-3.072v-18.432l-12.8 12.8c-1.024 1.024-3.072 1.024-4.096 0-1.024-1.024-1.024-3.072 0-4.096l12.8-12.8h-18.432c-1.536 0-3.072-1.536-3.072-3.072s1.536-3.072 3.072-3.072h18.432l-12.8-12.8c-1.024-1.024-1.024-3.072 0-4.096 1.024-1.024 3.072-1.024 4.096 0l12.8 12.8v-18.432c0-1.536 1.536-3.072 3.072-3.072s3.072 1.536 3.072 3.072v18.432l12.8-12.8c1.024-1.024 3.072-1.024 4.096 0 1.024 1.024 1.024 3.072 0 4.096l-12.8 12.8h18.432c1.536 0 3.072 1.536 3.072 3.072s-1.536 3.072-3.072 3.072H896l12.8 12.8c1.024 1.024 1.024 3.072 0 4.096-1.024 1.024-3.072 1.024-4.096 0l-12.8-12.8v18.432c-0.512 1.536-1.536 3.072-3.584 3.072z" fill="#82A0F6" p-id="4078"></path><path d="M835.072 284.16c0 25.088-16.896 45.056-37.888 45.056 20.992 0 37.888 19.968 37.888 45.056 0-25.088 16.896-45.056 37.888-45.056-20.992 0-37.888-19.968-37.888-45.056zM194.048 337.92c0 20.992-14.336 37.888-31.744 37.888 17.408 0 31.744 16.896 31.744 37.888 0-20.992 14.336-37.888 31.744-37.888-17.408 0-31.744-16.896-31.744-37.888zM705.536 144.384c0 18.432-12.8 33.28-28.16 33.28 15.36 0 28.16 14.848 28.16 33.28 0-18.432 12.8-33.28 28.16-33.28-15.36 0-28.16-14.848-28.16-33.28z" fill="#76A6EF" p-id="4079"></path><path d="M269.824 801.28c-10.752 0-19.456-8.704-19.456-19.456s8.704-19.456 19.456-19.456c10.752 0 19.456 8.704 19.456 19.456s-8.704 19.456-19.456 19.456z m0-29.696c-6.144 0-10.752 4.608-10.752 10.752s4.608 10.752 10.752 10.752 10.752-4.608 10.752-10.752-5.12-10.752-10.752-10.752z" fill="#82A0F6" p-id="4080"></path><path d="M727.04 358.4c-5.632-5.632-16.896-6.656-28.672-7.168 5.632 5.632 16.896 6.656 28.672 7.168z" fill="#FFFFFF" p-id="4081"></path><path d="M740.864 328.192H348.16c-17.92 0-32.256 13.312-32.256 29.696V670.72c0 16.384 14.336 29.696 32.256 29.696h464.896c17.92 0 32.256-13.312 32.256-29.696V424.448c0-1.536-1.024-2.56-2.56-2.56h-77.312c-12.288 0-22.016-9.216-22.016-20.48V330.752c0-1.536-1.024-2.56-2.56-2.56z" fill="#FFFFFF" p-id="4082"></path><path d="M740.864 328.192H348.16c-17.92 0-32.256 13.312-32.256 29.696V670.72c0 16.384 14.336 29.696 32.256 29.696h464.896c17.92 0 32.256-13.312 32.256-29.696V424.448c0-1.536-1.024-2.56-2.56-2.56h-77.312c-12.288 0-22.016-9.216-22.016-20.48V330.752c0-1.536-1.024-2.56-2.56-2.56z" fill="#C7DDFF" p-id="4083"></path><path d="M813.056 708.096H348.16c-22.016 0-40.448-16.896-40.448-37.888v-312.32c0-20.992 17.92-37.888 40.448-37.888h392.704c5.632 0 10.752 4.608 10.752 10.24v71.168c0 6.656 6.144 12.288 14.336 12.288h77.312c5.632 0 10.752 4.608 10.752 10.24V670.72c-0.512 20.48-18.432 37.376-40.96 37.376zM348.16 335.872c-13.312 0-24.576 9.728-24.576 22.016V670.72c0 12.288 11.264 22.016 24.576 22.016h464.896c13.312 0 24.576-9.728 24.576-22.016V430.08h-72.192c-16.384 0-30.208-12.8-30.208-28.16V335.872H348.16z" fill="#2B77EF" p-id="4084"></path><path d="M740.864 328.192H348.16c-17.92 0-32.256 13.312-32.256 29.696V670.72c0 16.384 14.336 29.696 32.256 29.696h464.896c17.92 0 32.256-13.312 32.256-29.696V424.448c0-1.536-1.024-2.56-2.56-2.56h-77.312c-12.288 0-22.016-9.216-22.016-20.48V330.752c0-1.536-1.024-2.56-2.56-2.56z" fill="#C7DDFF" p-id="4085"></path><path d="M381.952 670.72V357.888c0-16.384 14.336-29.696 32.256-29.696H348.16c-17.92 0-32.256 13.312-32.256 29.696V670.72c0 16.384 14.336 29.696 32.256 29.696h66.048c-17.92 0-32.256-13.312-32.256-29.696z" fill="#FFFFFF" p-id="4086"></path><path d="M639.488 442.88H358.912c-5.632 0-10.752-4.608-10.752-10.752 0-5.632 4.608-10.752 10.752-10.752h280.576c5.632 0 10.752 4.608 10.752 10.752 0 6.144-5.12 10.752-10.752 10.752zM639.488 632.32H358.912c-5.632 0-10.752-4.608-10.752-10.752 0-5.632 4.608-10.752 10.752-10.752h280.576c5.632 0 10.752 4.608 10.752 10.752 0 6.144-5.12 10.752-10.752 10.752z" fill="#4F6DE6" p-id="4087"></path><path d="M602.624 503.296H358.912c-5.632 0-10.752-4.608-10.752-10.752 0-5.632 4.608-10.752 10.752-10.752h243.712c5.632 0 10.752 4.608 10.752 10.752 0 6.144-4.608 10.752-10.752 10.752zM427.008 568.32H358.912c-5.632 0-10.752-4.608-10.752-10.752 0-5.632 4.608-10.752 10.752-10.752h68.608c5.632 0 10.752 4.608 10.752 10.752-0.512 6.144-5.12 10.752-11.264 10.752zM590.336 568.32H481.28c-5.632 0-10.752-4.608-10.752-10.752 0-5.632 4.608-10.752 10.752-10.752h109.056c5.632 0 10.752 4.608 10.752 10.752 0 6.144-5.12 10.752-10.752 10.752z" fill="#F68282" p-id="4088"></path><path d="M768 421.376h71.168c2.56 0 3.584-2.56 2.048-4.096l-92.672-84.992c-1.536-1.536-4.608-0.512-4.608 2.048V399.36c0 12.288 10.752 22.016 24.064 22.016z" fill="#C7DDFF" p-id="4089"></path><path d="M839.168 429.568H768c-17.92 0-32.256-13.824-32.256-30.208V333.824c0-4.096 2.56-7.68 6.144-9.728 4.096-1.536 8.704-1.024 11.776 2.048l92.672 84.992c3.072 3.072 4.096 7.168 2.56 11.264-1.024 4.608-5.12 7.168-9.728 7.168z m-87.552-83.968V399.36c0 8.192 7.168 14.336 16.384 14.336h57.344l-73.728-68.096z" fill="#2B77EF" p-id="4090"></path><path d="M842.752 421.888h-52.736c1.536 0 2.56 1.024 2.56 2.56V670.72c0 16.384-14.336 29.696-32.256 29.696h52.736c17.92 0 32.256-13.312 32.256-29.696V424.448c0.512-1.536-1.024-2.56-2.56-2.56zM697.856 336.896v71.168c0 11.264 9.728 20.48 22.016 20.48h52.736c-12.288 0-22.016-9.216-22.016-20.48V336.896c0-1.536-1.024-2.56-2.56-2.56h-52.736c1.536 0 2.56 1.024 2.56 2.56z" fill="#76A6EF" p-id="4091"></path><path d="M813.056 708.096H348.16c-22.016 0-40.448-16.896-40.448-37.888v-312.32c0-20.992 17.92-37.888 40.448-37.888h392.704c5.632 0 10.752 4.608 10.752 10.24v71.168c0 6.656 6.144 12.288 14.336 12.288h77.312c5.632 0 10.752 4.608 10.752 10.24V670.72c-0.512 20.48-18.432 37.376-40.96 37.376zM348.16 335.872c-13.312 0-24.576 9.728-24.576 22.016V670.72c0 12.288 11.264 22.016 24.576 22.016h464.896c13.312 0 24.576-9.728 24.576-22.016V430.08h-72.192c-16.384 0-30.208-12.8-30.208-28.16V335.872H348.16z" fill="#2B77EF" p-id="4092"></path><path d="M658.944 416.768H231.936c-19.456 0-35.328 14.336-35.328 32.256v340.48c0 17.92 15.872 32.256 35.328 32.256h505.856c19.456 0 35.328-14.336 35.328-32.256v-267.776c0-1.536-1.536-2.56-3.072-2.56H686.08c-13.312 0-24.064-9.728-24.064-22.016V419.328c0-1.536-1.536-2.56-3.072-2.56z" fill="#FFFFFF" p-id="4093"></path><path d="M658.944 416.768H231.936c-19.456 0-35.328 14.336-35.328 32.256v340.48c0 17.92 15.872 32.256 35.328 32.256h505.856c19.456 0 35.328-14.336 35.328-32.256v-267.776c0-1.536-1.536-2.56-3.072-2.56H686.08c-13.312 0-24.064-9.728-24.064-22.016V419.328c0-1.536-1.536-2.56-3.072-2.56z" fill="#FFFFFF" p-id="4094"></path><path d="M658.944 416.768H231.936c-19.456 0-35.328 14.336-35.328 32.256v340.48c0 17.92 15.872 32.256 35.328 32.256h505.856c19.456 0 35.328-14.336 35.328-32.256v-267.776c0-1.536-1.536-2.56-3.072-2.56H686.08c-13.312 0-24.064-9.728-24.064-22.016V419.328c0-1.536-1.536-2.56-3.072-2.56z" fill="#C7DDFF" p-id="4095"></path><path d="M268.288 789.504V449.024c0-17.92 15.872-32.256 35.328-32.256h-71.68c-19.456 0-35.328 14.336-35.328 32.256v340.48c0 17.92 15.872 32.256 35.328 32.256h72.192c-19.968 0-35.84-14.336-35.84-32.256z" fill="#FFFFFF" p-id="4096"></path><path d="M549.376 541.696H243.2c-6.144 0-11.264-5.12-11.264-11.264v-1.024c0-6.144 5.12-11.264 11.264-11.264h306.176c6.144 0 11.264 5.12 11.264 11.264v1.024c-0.512 6.144-5.12 11.264-11.264 11.264zM549.376 748.032H243.2c-6.144 0-11.264-5.12-11.264-11.264v-1.024c0-6.144 5.12-11.264 11.264-11.264h306.176c6.144 0 11.264 5.12 11.264 11.264v1.024c-0.512 6.144-5.12 11.264-11.264 11.264z" fill="#4F6DE6" p-id="4097"></path><path d="M509.44 607.232h-266.24c-6.144 0-11.264-5.12-11.264-11.264v-1.024c0-6.144 5.12-11.264 11.264-11.264h266.24c6.144 0 11.264 5.12 11.264 11.264v1.024c-0.512 6.656-5.12 11.264-11.264 11.264zM318.464 678.4H243.2c-6.144 0-11.264-5.12-11.264-11.264v-1.024c0-6.144 5.12-11.264 11.264-11.264h75.264c6.144 0 11.264 5.12 11.264 11.264v1.024c-0.512 6.144-5.12 11.264-11.264 11.264zM495.616 678.4H376.32c-6.144 0-11.264-5.12-11.264-11.264v-1.024c0-6.144 5.12-11.264 11.264-11.264h119.808c6.144 0 11.264 5.12 11.264 11.264v1.024c-0.512 6.144-5.632 11.264-11.776 11.264z" fill="#F68282" p-id="4098"></path><path d="M689.152 518.144h77.312c2.56 0 4.096-3.072 2.048-4.608l-100.864-92.672c-2.048-1.536-5.12-0.512-5.12 2.048v71.168c0 13.312 11.776 24.064 26.624 24.064z" fill="#C7DDFF" p-id="4099"></path><path d="M766.464 526.848h-77.312c-19.456 0-35.328-14.848-35.328-32.768V422.912c0-4.608 2.56-8.704 6.656-10.24 4.096-2.048 9.216-1.024 12.8 2.048l100.864 92.672c3.584 3.072 4.608 8.192 3.072 12.288-2.048 4.608-6.144 7.168-10.752 7.168z m-95.232-91.136v58.368c0 8.704 8.192 15.872 17.92 15.872h62.464l-80.384-74.24z" fill="#2B77EF" p-id="4100"></path><path d="M770.048 518.656h-57.344c1.536 0 3.072 1.024 3.072 2.56v267.776c0 17.92-15.872 32.256-35.328 32.256h57.344c19.456 0 35.328-14.336 35.328-32.256v-267.776c0-1.536-1.536-2.56-3.072-2.56zM612.864 425.984v77.312c0 12.288 10.752 22.016 24.064 22.016h57.344c-13.312 0-24.064-9.728-24.064-22.016V425.984c0-1.536-1.536-2.56-3.072-2.56h-57.344c1.536 0 3.072 1.024 3.072 2.56z" fill="#76A6EF" p-id="4101"></path><path d="M737.792 830.464H231.936c-24.064 0-44.032-18.432-44.032-40.96V449.024c0-22.528 19.456-40.96 44.032-40.96h427.008c6.144 0 11.776 5.12 11.776 11.264V496.64c0 7.68 7.168 13.312 15.36 13.312h83.968c6.144 0 11.776 5.12 11.776 11.264v267.776c0 23.04-19.968 41.472-44.032 41.472zM231.936 424.96c-14.848 0-26.624 10.752-26.624 24.064v340.48c0 13.312 11.776 24.064 26.624 24.064h505.856c14.848 0 26.624-10.752 26.624-24.064V527.36H686.08c-17.92 0-32.768-13.824-32.768-30.72V424.96H231.936z" fill="#2B77EF" p-id="4102"></path></svg>