<svg xmlns="http://www.w3.org/2000/svg" xmlns:xlink="http://www.w3.org/1999/xlink" style="margin:auto;background:#ffffff;display:block;z-index:1;position:relative" width="1212" height="775" preserveAspectRatio="xMidYMid" viewBox="0 0 1212 775">
<g transform="translate(606,387.5) scale(1,1) translate(-606,-387.5)"><path id="path0" d="M 807.6224802775683 651.4136443987867
c 0 19.3014021178012 -4.722683496908804 5.54401975724077 -10.266703254149574 5.54401975724077
S 787.0890737692692 670.7150465165879 787.0890737692692 651.4136443987867
s 4.722683496908804 -5.54401975724077 10.266703254149574 -5.54401975724077
S 807.6224802775683 632.1122422809855 807.6224802775683 651.4136443987867
z" fill="none" stroke="none"></path>
<circle cx="0" cy="0" r="6.431559438703398" fill="#51cacc">
  <animateMotion begin="-5.519216822087275s" dur="7.23s" repeatCount="indefinite">
    <mpath xlink:href="#path0"></mpath>
  </animateMotion>
</circle><path id="path1" d="M 390.28936735036694 639.2130798592792
c 0 24.91695162573556 -6.096700929701254 7.156996743562342 -13.253697673263595 7.156996743562342
S 363.7819720038397 664.1300314850148 363.7819720038397 639.2130798592792
s 6.096700929701254 -7.156996743562342 13.253697673263595 -7.156996743562342
S 390.28936735036694 614.2961282335436 390.28936735036694 639.2130798592792
z" fill="none" stroke="none"></path>
<circle cx="0" cy="0" r="6.972452929063788" fill="#ff708e">
  <animateMotion begin="-5.453434153737532s" dur="7.23s" repeatCount="indefinite">
    <mpath xlink:href="#path1"></mpath>
  </animateMotion>
</circle><path id="path2" d="M 325.4197455589284 397.1956976625656
c 0 23.60882825397634 -5.776628189802721 6.78125917933363 -12.55788736913635 6.78125917933363
S 300.30397082065576 420.80452591654193 300.30397082065576 397.1956976625656
s 5.776628189802721 -6.78125917933363 12.55788736913635 -6.78125917933363
S 325.4197455589284 373.5868694085892 325.4197455589284 397.1956976625656
z" fill="none" stroke="none"></path>
<circle cx="0" cy="0" r="6.673601636484162" fill="#e0ff77">
  <animateMotion begin="-1.859259113862686s" dur="7.23s" repeatCount="indefinite">
    <mpath xlink:href="#path2"></mpath>
  </animateMotion>
</circle><path id="path3" d="M 1079.264111604388 708.1906137042342
c 0 29.52040757092422 -7.223078448204862 8.479266004414404 -15.702344452619265 8.479266004414404
S 1047.8594226991497 737.7110212751585 1047.8594226991497 708.1906137042342
s 7.223078448204862 -8.479266004414404 15.702344452619265 -8.479266004414404
S 1079.264111604388 678.67020613331 1079.264111604388 708.1906137042342
z" fill="none" stroke="none"></path>
<circle cx="0" cy="0" r="6.106634003775382" fill="#de9dd6">
  <animateMotion begin="-0.7968963858311796s" dur="7.23s" repeatCount="indefinite">
    <mpath xlink:href="#path3"></mpath>
  </animateMotion>
</circle><path id="path4" d="M 532.1923698232538 332.2670975975954
c 0 27.829124443684528 -6.809253853241958 7.993471914675344 -14.802725767917302 7.993471914675344
S 502.58691828741917 360.09622204127993 502.58691828741917 332.2670975975954
s 6.809253853241958 -7.993471914675344 14.802725767917302 -7.993471914675344
S 532.1923698232538 304.4379731539109 532.1923698232538 332.2670975975954
z" fill="none" stroke="none"></path>
<circle cx="0" cy="0" r="6.639956739700794" fill="#9df871">
  <animateMotion begin="-0.9950200982492181s" dur="7.23s" repeatCount="indefinite">
    <mpath xlink:href="#path4"></mpath>
  </animateMotion>
</circle><path id="path5" d="M 802.1381342342735 691.0859607214389
c 0 19.182313234923978 -4.693544727694165 5.509813375988802 -10.203358103682966 5.509813375988802
S 781.7314180269076 710.2682739563629 781.7314180269076 691.0859607214389
s 4.693544727694165 -5.509813375988802 10.203358103682966 -5.509813375988802
S 802.1381342342735 671.903647486515 802.1381342342735 691.0859607214389
z" fill="none" stroke="none"></path>
<circle cx="0" cy="0" r="5.498827989981039" fill="#ff708e">
  <animateMotion begin="-6.047008110364358s" dur="7.23s" repeatCount="indefinite">
    <mpath xlink:href="#path5"></mpath>
  </animateMotion>
</circle><path id="path6" d="M 1034.368608930282 64.03012282573448
c 0 35.86550927592708 -8.775603333471519 10.301795217553524 -19.07739855102504 10.301795217553524
S 996.2138118282321 99.89563210166156 996.2138118282321 64.03012282573448
s 8.775603333471519 -10.301795217553524 19.07739855102504 -10.301795217553524
S 1034.368608930282 28.1646135498074 1034.368608930282 64.03012282573448
z" fill="none" stroke="none"></path>
<circle cx="0" cy="0" r="6.63966291177071" fill="#51cacc">
  <animateMotion begin="-0.5656804774596491s" dur="7.23s" repeatCount="indefinite">
    <mpath xlink:href="#path6"></mpath>
  </animateMotion>
</circle><path id="path7" d="M 1086.080380304604 207.01082561636534
c 0 21.333241958927587 -5.2198357984610055 6.1276333286281375 -11.347469127089143 6.1276333286281375
S 1063.3854420504256 228.3440675752929 1063.3854420504256 207.01082561636534
s 5.2198357984610055 -6.1276333286281375 11.347469127089143 -6.1276333286281375
S 1086.080380304604 185.67758365743776 1086.080380304604 207.01082561636534
z" fill="none" stroke="none"></path>
<circle cx="0" cy="0" r="4.397442702321653" fill="#51cacc">
  <animateMotion begin="-1.1743688483915704s" dur="7.23s" repeatCount="indefinite">
    <mpath xlink:href="#path7"></mpath>
  </animateMotion>
</circle><path id="path8" d="M 649.4369923668238 531.2270687886552
c 0 33.89499150921336 -8.293455369275609 9.735795433497456 -18.029250802773063 9.735795433497456
S 613.3784907612777 565.1220602978685 613.3784907612777 531.2270687886552
s 8.293455369275609 -9.735795433497456 18.029250802773063 -9.735795433497456
S 649.4369923668238 497.3320772794418 649.4369923668238 531.2270687886552
z" fill="none" stroke="none"></path>
<circle cx="0" cy="0" r="5.004900184317223" fill="#51cacc">
  <animateMotion begin="-1.3350433182864012s" dur="7.23s" repeatCount="indefinite">
    <mpath xlink:href="#path8"></mpath>
  </animateMotion>
</circle><path id="path9" d="M 1160.5922681019013 575.8361732230862
c 0 20.07925818841944 -4.9130099822728415 5.767446500928989 -10.68045648320183 5.767446500928989
S 1139.2313551354976 595.9154314115057 1139.2313551354976 575.8361732230862
s 4.9130099822728415 -5.767446500928989 10.68045648320183 -5.767446500928989
S 1160.5922681019013 555.7569150346668 1160.5922681019013 575.8361732230862
z" fill="none" stroke="none"></path>
<circle cx="0" cy="0" r="6.321985951920272" fill="#e0ff77">
  <animateMotion begin="-6.896590622286908s" dur="7.23s" repeatCount="indefinite">
    <mpath xlink:href="#path9"></mpath>
  </animateMotion>
</circle><path id="path10" d="M 632.9280202598677 261.1854325811875
c 0 29.615358603720054 -7.246311147718735 8.506539173408951 -15.752850321127687 8.506539173408951
S 601.4223196176124 290.80079118490755 601.4223196176124 261.1854325811875
s 7.246311147718735 -8.506539173408951 15.752850321127687 -8.506539173408951
S 632.9280202598677 231.57007397746747 632.9280202598677 261.1854325811875
z" fill="none" stroke="none"></path>
<circle cx="0" cy="0" r="4.665435458950827" fill="#de9dd6">
  <animateMotion begin="-4.787105504580301s" dur="7.23s" repeatCount="indefinite">
    <mpath xlink:href="#path10"></mpath>
  </animateMotion>
</circle><path id="path11" d="M 867.1758611610323 664.6548147257334
c 0 29.370618445339073 -7.186427917476581 8.436241468342073 -15.622669385818655 8.436241468342073
S 835.930522389395 694.0254331710726 835.930522389395 664.6548147257334
s 7.186427917476581 -8.436241468342073 15.622669385818655 -8.436241468342073
S 867.1758611610323 635.2841962803943 867.1758611610323 664.6548147257334
z" fill="none" stroke="none"></path>
<circle cx="0" cy="0" r="5.593222295992873" fill="#9df871">
  <animateMotion begin="-1.972027615672399s" dur="7.23s" repeatCount="indefinite">
    <mpath xlink:href="#path11"></mpath>
  </animateMotion>
</circle><path id="path12" d="M 871.9178090515011 472.1260994875398
c 0 21.74680389588944 -5.321026485164436 6.246422395627818 -11.567448880792256 6.246422395627818
S 848.7829112899165 493.8729033834293 848.7829112899165 472.1260994875398
s 5.321026485164436 -6.246422395627818 11.567448880792256 -6.246422395627818
S 871.9178090515011 450.37929559165036 871.9178090515011 472.1260994875398
z" fill="none" stroke="none"></path>
<circle cx="0" cy="0" r="5.779021152078025" fill="#9df871">
  <animateMotion begin="-0.11855563300753001s" dur="7.23s" repeatCount="indefinite">
    <mpath xlink:href="#path12"></mpath>
  </animateMotion>
</circle><path id="path13" d="M 735.6790291008626 105.47727178886679
c 0 36.49076884844949 -8.928592377812107 10.481391052214216 -19.409983430026323 10.481391052214216
S 696.8590622408101 141.96804063731628 696.8590622408101 105.47727178886679
s 8.928592377812107 -10.481391052214216 19.409983430026323 -10.481391052214216
S 735.6790291008626 68.9865029404173 735.6790291008626 105.47727178886679
z" fill="none" stroke="none"></path>
<circle cx="0" cy="0" r="6.213740776421011" fill="#ff708e">
  <animateMotion begin="-1.338649866807394s" dur="7.23s" repeatCount="indefinite">
    <mpath xlink:href="#path13"></mpath>
  </animateMotion>
</circle><path id="path14" d="M 99.51525942651186 429.1302991452631
c 0 27.93831369639577 -6.835970372522368 8.024834785134956 -14.860805157657325 8.024834785134956
S 69.79364911119721 457.0686128416589 69.79364911119721 429.1302991452631
s 6.835970372522368 -8.024834785134956 14.860805157657325 -8.024834785134956
S 99.51525942651186 401.19198544886734 99.51525942651186 429.1302991452631
z" fill="none" stroke="none"></path>
<circle cx="0" cy="0" r="4.701151478783214" fill="#ff708e">
  <animateMotion begin="-2.9601859507574755s" dur="7.23s" repeatCount="indefinite">
    <mpath xlink:href="#path14"></mpath>
  </animateMotion>
</circle><path id="path15" d="M 304.7034854507702 8.484915835972771
c 0 35.343329847668045 -8.647836026557073 10.151807509436566 -18.79964353599364 10.151807509436566
S 267.1041983787829 43.828245683640816 267.1041983787829 8.484915835972771
s 8.647836026557073 -10.151807509436566 18.79964353599364 -10.151807509436566
S 304.7034854507702 -26.858414011695274 304.7034854507702 8.484915835972771
z" fill="none" stroke="none"></path>
<circle cx="0" cy="0" r="7.811158888140907" fill="#e0ff77">
  <animateMotion begin="-4.124736373806882s" dur="7.23s" repeatCount="indefinite">
    <mpath xlink:href="#path15"></mpath>
  </animateMotion>
</circle><path id="path16" d="M 78.25059995990583 612.7995859988835
c 0 36.01391703255229 -8.81191586966705 10.344422977435233 -19.156338847102283 10.344422977435233
S 39.93792226570126 648.8135030314357 39.93792226570126 612.7995859988835
s 8.81191586966705 -10.344422977435233 19.156338847102283 -10.344422977435233
S 78.25059995990583 576.7856689663312 78.25059995990583 612.7995859988835
z" fill="none" stroke="none"></path>
<circle cx="0" cy="0" r="4.532495357484308" fill="#9df871">
  <animateMotion begin="-0.40630103798898715s" dur="7.23s" repeatCount="indefinite">
    <mpath xlink:href="#path16"></mpath>
  </animateMotion>
</circle><path id="path17" d="M 1017.5916756286247 546.2676638291036
c 0 26.189543470331724 -6.408079785293932 7.52252844360592 -13.930608228899853 7.52252844360592
S 989.730459170825 572.4572072994354 989.730459170825 546.2676638291036
s 6.408079785293932 -7.52252844360592 13.930608228899853 -7.52252844360592
S 1017.5916756286247 520.0781203587719 1017.5916756286247 546.2676638291036
z" fill="none" stroke="none"></path>
<circle cx="0" cy="0" r="6.297782017995089" fill="#ff708e">
  <animateMotion begin="-3.616251352149572s" dur="7.23s" repeatCount="indefinite">
    <mpath xlink:href="#path17"></mpath>
  </animateMotion>
</circle><path id="path18" d="M 1070.0696834732494 491.9494426338268
c 0 23.923754719198897 -5.8536846653359 6.871716781046492 -12.725401446382392 6.871716781046492
S 1044.6188805804845 515.8731973530257 1044.6188805804845 491.9494426338268
s 5.8536846653359 -6.871716781046492 12.725401446382392 -6.871716781046492
S 1070.0696834732494 468.0256879146279 1070.0696834732494 491.9494426338268
z" fill="none" stroke="none"></path>
<circle cx="0" cy="0" r="4.5024030394789705" fill="#51cacc">
  <animateMotion begin="-0.9006837328140472s" dur="7.23s" repeatCount="indefinite">
    <mpath xlink:href="#path18"></mpath>
  </animateMotion>
</circle><path id="path19" d="M 154.03930009105324 402.64287847924106
c 0 28.757667904818828 -7.036450657562053 8.26018120670328 -15.296631864265333 8.26018120670328
S 123.44603636252258 431.4005463840599 123.44603636252258 402.64287847924106
s 7.036450657562053 -8.26018120670328 15.296631864265333 -8.26018120670328
S 154.03930009105324 373.8852105744222 154.03930009105324 402.64287847924106
z" fill="none" stroke="none"></path>
<circle cx="0" cy="0" r="5.9734282821882525" fill="#ff708e">
  <animateMotion begin="-3.6593922378079897s" dur="7.23s" repeatCount="indefinite">
    <mpath xlink:href="#path19"></mpath>
  </animateMotion>
</circle><path id="path20" d="M 399.3341046040595 483.16017985180616
c 0 31.533735042942517 -7.7157011275284875 9.057562193185618 -16.773263320714104 9.057562193185618
S 365.78757796263136 514.6939148947487 365.78757796263136 483.16017985180616
s 7.7157011275284875 -9.057562193185618 16.773263320714104 -9.057562193185618
S 399.3341046040595 451.62644480886365 399.3341046040595 483.16017985180616
z" fill="none" stroke="none"></path>
<circle cx="0" cy="0" r="6.879772629706872" fill="#9df871">
  <animateMotion begin="-3.6369899371105565s" dur="7.23s" repeatCount="indefinite">
    <mpath xlink:href="#path20"></mpath>
  </animateMotion>
</circle><path id="path21" d="M 27.529761491504896 134.1401478304931
c 0 30.66680707186526 -7.503580453754265 8.80855096745066 -16.312131421204924 8.80855096745066
S -5.094501350904952 164.80695490235837 -5.094501350904952 134.1401478304931
s 7.503580453754265 -8.80855096745066 16.312131421204924 -8.80855096745066
S 27.529761491504896 103.47334075862784 27.529761491504896 134.1401478304931
z" fill="none" stroke="none"></path>
<circle cx="0" cy="0" r="6.0634475102666086" fill="#ff708e">
  <animateMotion begin="-6.826299832637206s" dur="7.23s" repeatCount="indefinite">
    <mpath xlink:href="#path21"></mpath>
  </animateMotion>
</circle><path id="path22" d="M 1070.982854380445 448.8323937643167
c 0 24.432177302790222 -5.978085935789096 7.017753055056766 -12.995838990845863 7.017753055056766
S 1044.9911763987532 473.2645710671069 1044.9911763987532 448.8323937643167
s 5.978085935789096 -7.017753055056766 12.995838990845863 -7.017753055056766
S 1070.982854380445 424.4002164615265 1070.982854380445 448.8323937643167
z" fill="none" stroke="none"></path>
<circle cx="0" cy="0" r="7.0912969884814805" fill="#9df871">
  <animateMotion begin="-5.790971189770784s" dur="7.23s" repeatCount="indefinite">
    <mpath xlink:href="#path22"></mpath>
  </animateMotion>
</circle><path id="path23" d="M 721.5628938336021 325.9274943421667
c 0 19.97540056351572 -4.8875980102219305 5.737615055477919 -10.62521306569985 5.737615055477919
S 700.3124677022023 345.90289490568244 700.3124677022023 325.9274943421667
s 4.8875980102219305 -5.737615055477919 10.62521306569985 -5.737615055477919
S 721.5628938336021 305.952093778651 721.5628938336021 325.9274943421667
z" fill="none" stroke="none"></path>
<circle cx="0" cy="0" r="7.334736816782051" fill="#9df871">
  <animateMotion begin="-7.069479457298183s" dur="7.23s" repeatCount="indefinite">
    <mpath xlink:href="#path23"></mpath>
  </animateMotion>
</circle><path id="path24" d="M 981.310809472888 266.76072999885054
c 0 21.526356645881823 -5.267087264417892 6.183102440838396 -11.450189705256289 6.183102440838396
S 958.4104300623753 288.28708664473237 958.4104300623753 266.76072999885054
s 5.267087264417892 -6.183102440838396 11.450189705256289 -6.183102440838396
S 981.310809472888 245.2343733529687 981.310809472888 266.76072999885054
z" fill="none" stroke="none"></path>
<circle cx="0" cy="0" r="5.157285235376606" fill="#51cacc">
  <animateMotion begin="-3.337811412978874s" dur="7.23s" repeatCount="indefinite">
    <mpath xlink:href="#path24"></mpath>
  </animateMotion>
</circle><path id="path25" d="M 714.4572877057981 296.6929078099584
c 0 31.78861358014832 -7.778065024929907 9.130771985787284 -16.90883701071719 9.130771985787284
S 680.6396136843637 328.4815213901067 680.6396136843637 296.6929078099584
s 7.778065024929907 -9.130771985787284 16.90883701071719 -9.130771985787284
S 714.4572877057981 264.9042942298101 714.4572877057981 296.6929078099584
z" fill="none" stroke="none"></path>
<circle cx="0" cy="0" r="7.007486815676541" fill="#ff708e">
  <animateMotion begin="-6.162281175004258s" dur="7.23s" repeatCount="indefinite">
    <mpath xlink:href="#path25"></mpath>
  </animateMotion>
</circle><path id="path26" d="M 1115.7738693057238 573.5077175913477
c 0 23.45118136508099 -5.738055014860242 6.7359776261402855 -12.474032641000527 6.7359776261402855
S 1090.8258040237226 596.9588989564287 1090.8258040237226 573.5077175913477
s 5.738055014860242 -6.7359776261402855 12.474032641000527 -6.7359776261402855
S 1115.7738693057238 550.0565362262668 1115.7738693057238 573.5077175913477
z" fill="none" stroke="none"></path>
<circle cx="0" cy="0" r="4.718633885431506" fill="#e0ff77">
  <animateMotion begin="-5.327956518530776s" dur="7.23s" repeatCount="indefinite">
    <mpath xlink:href="#path26"></mpath>
  </animateMotion>
</circle><path id="path27" d="M 170.55687737279533 645.5619710574992
c 0 21.32072210243732 -5.21677242931977 6.124037199636252 -11.340809628956022 6.124037199636252
S 147.8752581148833 666.8826931599366 147.8752581148833 645.5619710574992
s 5.21677242931977 -6.124037199636252 11.340809628956022 -6.124037199636252
S 170.55687737279533 624.2412489550619 170.55687737279533 645.5619710574992
z" fill="none" stroke="none"></path>
<circle cx="0" cy="0" r="4.824069753340673" fill="#de9dd6">
  <animateMotion begin="-1.2104148045486858s" dur="7.23s" repeatCount="indefinite">
    <mpath xlink:href="#path27"></mpath>
  </animateMotion>
</circle><path id="path28" d="M 384.4862430593044 731.2350373059245
c 0 29.637261983053953 -7.251670485215328 8.512830569600604 -15.76450105481593 8.512830569600604
S 352.95724094967255 760.8722992889784 352.95724094967255 731.2350373059245
s 7.251670485215328 -8.512830569600604 15.76450105481593 -8.512830569600604
S 384.4862430593044 701.5977753228706 384.4862430593044 731.2350373059245
z" fill="none" stroke="none"></path>
<circle cx="0" cy="0" r="6.206069001404363" fill="#51cacc">
  <animateMotion begin="-2.200527300360666s" dur="7.23s" repeatCount="indefinite">
    <mpath xlink:href="#path28"></mpath>
  </animateMotion>
</circle><path id="path29" d="M 588.9608654811498 591.0122121399928
c 0 21.86747891795714 -5.350553352266108 6.281084370051519 -11.631637722317627 6.281084370051519
S 565.6975900365146 612.8796910579499 565.6975900365146 591.0122121399928
s 5.350553352266108 -6.281084370051519 11.631637722317627 -6.281084370051519
S 588.9608654811498 569.1447332220357 588.9608654811498 591.0122121399928
z" fill="none" stroke="none"></path>
<circle cx="0" cy="0" r="4.014214862914821" fill="#9df871">
  <animateMotion begin="-4.137132404179214s" dur="7.23s" repeatCount="indefinite">
    <mpath xlink:href="#path29"></mpath>
  </animateMotion>
</circle><path id="path30" d="M 1091.418607136569 11.699627933431458
c 0 21.31379018268521 -5.215076321295316 6.122046116303198 -11.337122437598515 6.122046116303198
S 1068.744362261372 33.01341811611667 1068.744362261372 11.699627933431458
s 5.215076321295316 -6.122046116303198 11.337122437598515 -6.122046116303198
S 1091.418607136569 -9.614162249253752 1091.418607136569 11.699627933431458
z" fill="none" stroke="none"></path>
<circle cx="0" cy="0" r="7.003536579353634" fill="#ff708e">
  <animateMotion begin="-2.743547798903879s" dur="7.23s" repeatCount="indefinite">
    <mpath xlink:href="#path30"></mpath>
  </animateMotion>
</circle><path id="path31" d="M 601.9891273933969 468.5050343343111
c 0 32.95682389844331 -8.063903719831872 9.466321758063504 -17.530225477895375 9.466321758063504
S 566.9286764376062 501.4618582327544 566.9286764376062 468.5050343343111
s 8.063903719831872 -9.466321758063504 17.530225477895375 -9.466321758063504
S 601.9891273933969 435.5482104358678 601.9891273933969 468.5050343343111
z" fill="none" stroke="none"></path>
<circle cx="0" cy="0" r="5.8479235440208654" fill="#ff708e">
  <animateMotion begin="-6.035837787926685s" dur="7.23s" repeatCount="indefinite">
    <mpath xlink:href="#path31"></mpath>
  </animateMotion>
</circle><path id="path32" d="M 889.6465361653123 293.4252225056372
c 0 22.23328964136068 -5.440060231396761 6.386157662944026 -11.826217894340786 6.386157662944026
S 865.9941003766309 315.65851214699785 865.9941003766309 293.4252225056372
s 5.440060231396761 -6.386157662944026 11.826217894340786 -6.386157662944026
S 889.6465361653123 271.1919328642765 889.6465361653123 293.4252225056372
z" fill="none" stroke="none"></path>
<circle cx="0" cy="0" r="7.15282531737803" fill="#de9dd6">
  <animateMotion begin="-3.1816224499843773s" dur="7.23s" repeatCount="indefinite">
    <mpath xlink:href="#path32"></mpath>
  </animateMotion>
</circle><path id="path33" d="M 486.6873084575229 338.388485153679
c 0 30.368959155285573 -7.430702772037958 8.722998906305431 -16.15370167834339 8.722998906305431
S 454.3799051008361 368.7574443089646 454.3799051008361 338.388485153679
s 7.430702772037958 -8.722998906305431 16.15370167834339 -8.722998906305431
S 486.6873084575229 308.0195259983935 486.6873084575229 338.388485153679
z" fill="none" stroke="none"></path>
<circle cx="0" cy="0" r="6.560425419225939" fill="#ff708e">
  <animateMotion begin="-3.3932438867179364s" dur="7.23s" repeatCount="indefinite">
    <mpath xlink:href="#path33"></mpath>
  </animateMotion>
</circle><path id="path34" d="M 913.2052360849957 571.9620626458413
c 0 25.779641020384236 -6.307784504987631 7.404790505855047 -13.712575010842677 7.404790505855047
S 885.7800860633104 597.7417036662256 885.7800860633104 571.9620626458413
s 6.307784504987631 -7.404790505855047 13.712575010842677 -7.404790505855047
S 913.2052360849957 546.1824216254571 913.2052360849957 571.9620626458413
z" fill="none" stroke="none"></path>
<circle cx="0" cy="0" r="6.795905989024562" fill="#9df871">
  <animateMotion begin="-5.0644795108749046s" dur="7.23s" repeatCount="indefinite">
    <mpath xlink:href="#path34"></mpath>
  </animateMotion>
</circle><path id="path35" d="M 623.3497751220904 184.59756155890193
c 0 22.148245307914042 -5.419251511510882 6.361730035251906 -11.780981546762789 6.361730035251906
S 599.7878120285649 206.74580686681597 599.7878120285649 184.59756155890193
s 5.419251511510882 -6.361730035251906 11.780981546762789 -6.361730035251906
S 623.3497751220904 162.4493162509879 623.3497751220904 184.59756155890193
z" fill="none" stroke="none"></path>
<circle cx="0" cy="0" r="7.957949122147334" fill="#de9dd6">
  <animateMotion begin="-3.2457578607874025s" dur="7.23s" repeatCount="indefinite">
    <mpath xlink:href="#path35"></mpath>
  </animateMotion>
</circle><path id="path36" d="M 339.58041541656615 499.5938058807754
c 0 33.94776025854872 -8.306366871772559 9.750952414689527 -18.057319286462086 9.750952414689527
S 303.465776843642 533.5415661393241 303.465776843642 499.5938058807754
s 8.306366871772559 -9.750952414689527 18.057319286462086 -9.750952414689527
S 339.58041541656615 465.64604562222667 339.58041541656615 499.5938058807754
z" fill="none" stroke="none"></path>
<circle cx="0" cy="0" r="5.955412188780003" fill="#51cacc">
  <animateMotion begin="-4.650937244302089s" dur="7.23s" repeatCount="indefinite">
    <mpath xlink:href="#path36"></mpath>
  </animateMotion>
</circle></g>
</svg>