<svg xmlns="http://www.w3.org/2000/svg" viewBox="0 0 117.53 164.94"><defs><style>.cls-1{fill:none;}.cls-2{fill:#050;}.cls-2,.cls-3{stroke:#000;}.cls-3{fill:#fff;}</style></defs><g id="图层_2" data-name="图层 2"><g id="circle"><path d="M117.51,120.21c-.56-.79-1.11-1.59-1.63-2.4-.8-1.19-1.55-2.39-2.28-3.62a1.74,1.74,0,0,1-.11-.18,92.83,92.83,0,0,1-9.1-20.55l.22-.29q1-1.29,1.92-2.64c.17-.25.35-.51.51-.77s.48-.72.7-1.08c.13-.2.25-.4.37-.6.26-.42.52-.85.76-1.28h0c.82-1.41,1.58-2.87,2.27-4.35.16-.34.31-.67.46-1s.32-.72.47-1.08l.45-1.1c.14-.34.27-.69.4-1s.29-.78.43-1.18.26-.75.38-1.13l.36-1.13c.12-.38.23-.76.33-1.15s.17-.59.25-.89c.13-.47.24-1,.36-1.43s.2-.88.29-1.33.14-.69.21-1c.17-.87.32-1.76.45-2.66,0-.3.09-.6.12-.9.09-.64.16-1.29.22-2a1,1,0,0,0,0-.17c0-.36.07-.73.09-1.09a.28.28,0,0,0,0-.09q0-.2,0-.42c0-.54.06-1.09.08-1.64,0-.1,0-.2,0-.3q0-.9,0-1.8a57.91,57.91,0,1,0-115.82,0c0,.58,0,1.16,0,1.73,0,.19,0,.37,0,.56s0,.13,0,.2c0,.41,0,.83.07,1.24,0,.23,0,.45,0,.68s.05.69.09,1,0,.48.07.73c0,.44.09.87.15,1.31,0,.27.07.55.11.82,0,.09,0,.19,0,.28.07.47.15.94.23,1.41s.2,1.1.32,1.65l.12.6c.07.34.15.67.22,1a2.86,2.86,0,0,1,.07.28c.07.27.13.55.21.82.11.43.22.85.34,1.28s.19.69.3,1,.18.62.28.93.19.61.3.91.21.61.31.91c0,0,0,0,0,.05.39,1.1.82,2.19,1.28,3.26.06.15.12.29.19.44s0,.09.07.14a.5.5,0,0,0,0,.13c.23.51.47,1,.71,1.53s.49,1,.75,1.51.58,1.11.89,1.65a.14.14,0,0,1,0,.06c.31.55.63,1.09.95,1.62s.59,1,.9,1.45.59.9.89,1.35l0,.07c.28.42.57.83.87,1.24s.74,1,1.13,1.51c-.09.32-.19.64-.29,1A92.55,92.55,0,0,1,4.14,114l-.07.11c-.56,1-1.13,1.94-1.73,2.89-.75,1.21-1.53,2.39-2.34,3.56a7.11,7.11,0,0,0,1.27,4.06,7.25,7.25,0,0,0,4.3,3,36,36,0,0,1,13.86-4.94,36.06,36.06,0,0,1,7.35,9.62s0,0,0,0a.34.34,0,0,0,0,.1,7.15,7.15,0,0,0,2.3,5.28h0a7.24,7.24,0,0,0,10-.15l0,0a6.65,6.65,0,0,0,.83-1l0,0a7.23,7.23,0,0,1,11.64,2,6.6,6.6,0,0,0,.57,1.76,7.17,7.17,0,0,0,5.55,4.07,5.37,5.37,0,0,0,1,.08,6.77,6.77,0,0,0,1.7-.21,7.2,7.2,0,0,0,4.76-3.8A6.74,6.74,0,0,0,65.9,138a7.24,7.24,0,0,1,11.67-1.8,1,1,0,0,0,.1.17h0a6.48,6.48,0,0,0,.77,1l.13.13h0a7.25,7.25,0,0,0,10.7-.63v0a7.19,7.19,0,0,0,1.53-3.66,36.21,36.21,0,0,1,7.84-10.61,36,36,0,0,1,13.67,4.83,7.24,7.24,0,0,0,5.17-6.93A1.37,1.37,0,0,0,117.51,120.21ZM32.72,53A13.73,13.73,0,1,1,46.45,39.26,13.73,13.73,0,0,1,32.72,53ZM78,74.71l-1.74,12.4-1.83-13a94.76,94.76,0,0,0-32.69.57L40,87.11,38.34,75.36c-1.16.27-2.3.56-3.44.87a58.09,58.09,0,0,1,46.43-.8C80.23,75.17,79.11,74.93,78,74.71Zm5.78-21.35A13.73,13.73,0,1,1,97.5,39.63,13.73,13.73,0,0,1,83.77,53.36Z"/><path class="cls-1" d="M43.73,157.19a.64.64,0,0,0-.49.22.7.7,0,0,0-.22.51c0,.41.18.61.52.61a1.17,1.17,0,0,0,.61-.14.42.42,0,0,0,.24-.38,1.16,1.16,0,0,0-.17-.53A.56.56,0,0,0,43.73,157.19Z"/><path class="cls-1" d="M22,157.57a.58.58,0,0,0-.19.44.68.68,0,0,0,.2.49.69.69,0,0,0,.51.2.55.55,0,0,0,.46-.22.79.79,0,0,0,.17-.51.47.47,0,0,0-.23-.45.84.84,0,0,0-.45-.14A.61.61,0,0,0,22,157.57Z"/><path class="cls-1" d="M57,157.33a.81.81,0,0,0-.26.61.8.8,0,0,0,.26.61.87.87,0,0,0,.61.24.75.75,0,0,0,.66-.4,1.2,1.2,0,0,0,.26-.59.65.65,0,0,0-.28-.48.92.92,0,0,0-.64-.25A.85.85,0,0,0,57,157.33Z"/><path class="cls-1" d="M90.82,157.19a.66.66,0,0,0-.49.22.73.73,0,0,0-.21.51c0,.41.17.61.52.61a1.16,1.16,0,0,0,.6-.14.43.43,0,0,0,.25-.38,1.08,1.08,0,0,0-.18-.53A.56.56,0,0,0,90.82,157.19Z"/><path class="cls-2" d="M23.16,147.53v3.69a.16.16,0,0,1-.13.17,3.09,3.09,0,0,1-.69,0,6.18,6.18,0,0,0-4.53,1.9,6.51,6.51,0,0,0,0,9.21,6.39,6.39,0,0,0,4.7,1.9,6.11,6.11,0,0,0,4.6-1.92,6.89,6.89,0,0,0,1.84-5v-10Zm4.94,10a6,6,0,0,1-1.6,4.34,5.24,5.24,0,0,1-4,1.68,5.58,5.58,0,0,1-4.09-1.64,5.45,5.45,0,0,1-1.65-4,5.39,5.39,0,0,1,1.64-4,5.29,5.29,0,0,1,3.91-1.66c.25,0,.61,0,1.08.07v4.49a1.93,1.93,0,0,0-1.11-.38,1.32,1.32,0,0,0-1,.43,1.62,1.62,0,0,0,.05,2.21,1.54,1.54,0,0,0,1.12.46c1,0,1.56-.73,1.56-2.18v-9H28.1Zm-5,.42a.79.79,0,0,1-.18.51.55.55,0,0,1-.46.22.68.68,0,0,1-.71-.68.65.65,0,0,1,.66-.64.94.94,0,0,1,.45.14A.5.5,0,0,1,23.12,158Z"/><path class="cls-3" d="M28.1,148.41v9.14a6,6,0,0,1-1.6,4.34,5.24,5.24,0,0,1-4,1.68,5.58,5.58,0,0,1-4.09-1.64,5.45,5.45,0,0,1-1.65-4,5.39,5.39,0,0,1,1.64-4,5.29,5.29,0,0,1,3.91-1.66c.25,0,.61,0,1.08.07v4.49a1.93,1.93,0,0,0-1.11-.38,1.32,1.32,0,0,0-1,.43,1.62,1.62,0,0,0,.05,2.21,1.54,1.54,0,0,0,1.12.46c1,0,1.56-.73,1.56-2.18v-9Z"/><path class="cls-2" d="M35.75,151.31a5.62,5.62,0,0,0-4.22,1.58A6,6,0,0,0,30,157.22v6.87h5.81V158c0-.37.12-.56.36-.56a2.46,2.46,0,0,1,1,.34,6.22,6.22,0,0,1,.54-2.57v-3.7A10.35,10.35,0,0,0,35.75,151.31Zm1.06,5.24a1.69,1.69,0,0,0-.82-.26.86.86,0,0,0-.77.44A2.41,2.41,0,0,0,35,158v5.22H30.88v-6a5.3,5.3,0,0,1,1.28-3.72,4.34,4.34,0,0,1,3.38-1.41,7.07,7.07,0,0,1,1.27.12Z"/><path class="cls-3" d="M36.81,152.21v4.34a1.69,1.69,0,0,0-.82-.26.86.86,0,0,0-.77.44A2.41,2.41,0,0,0,35,158v5.22H30.88v-6a5.3,5.3,0,0,1,1.28-3.72,4.34,4.34,0,0,1,3.38-1.41A7.07,7.07,0,0,1,36.81,152.21Z"/><path class="cls-2" d="M48.46,153.08a6.45,6.45,0,0,0-4.8-1.77,6.28,6.28,0,0,0-4.6,1.91,6.35,6.35,0,0,0-1.37,2v2.87l-.54-.3s0,0,0,.06A6.26,6.26,0,0,0,39,162.46a6.44,6.44,0,0,0,4.7,1.86,5.84,5.84,0,0,0,1.35-.18,2.44,2.44,0,0,1,.66,0H50.2v-6.17A6.62,6.62,0,0,0,48.46,153.08Zm.87,10.13H45.27v-5a2,2,0,0,0-.44-1.36,1.39,1.39,0,0,0-1.1-.51,1.55,1.55,0,0,0-1.11.47,1.59,1.59,0,0,0-.47,1.14,1.48,1.48,0,0,0,.41,1.06,1.52,1.52,0,0,0,1.13.43,2,2,0,0,0,1-.26v4.18a4.86,4.86,0,0,1-.92.09,5.56,5.56,0,0,1-4.07-1.62,5.37,5.37,0,0,1-1.64-4,5.63,5.63,0,0,1,5.64-5.64,5.6,5.6,0,0,1,4.16,1.53,5.72,5.72,0,0,1,1.51,4.2ZM44.39,158a.43.43,0,0,1-.24.38,1.28,1.28,0,0,1-.61.14c-.34,0-.52-.21-.52-.62a.68.68,0,0,1,.22-.5.65.65,0,0,1,.49-.23.55.55,0,0,1,.49.3A1.09,1.09,0,0,1,44.39,158Z"/><path class="cls-3" d="M49.33,157.92v5.29H45.27v-5a2,2,0,0,0-.44-1.36,1.39,1.39,0,0,0-1.1-.51,1.55,1.55,0,0,0-1.11.47,1.59,1.59,0,0,0-.47,1.14,1.48,1.48,0,0,0,.41,1.06,1.52,1.52,0,0,0,1.13.43,2,2,0,0,0,1-.26v4.18a4.86,4.86,0,0,1-.92.09,5.56,5.56,0,0,1-4.07-1.62,5.37,5.37,0,0,1-1.64-4,5.63,5.63,0,0,1,5.64-5.64,5.6,5.6,0,0,1,4.16,1.53A5.72,5.72,0,0,1,49.33,157.92Z"/><path class="cls-2" d="M37.69,155.19a6.29,6.29,0,0,0-.54,2.57l.54.3Z"/><path class="cls-2" d="M63.88,157.66l-2.53,0h-.1s0,0,.1,0l2.48-.16c.16,0,.24-.07.24-.17a5.9,5.9,0,0,0-.56-1.69,7.86,7.86,0,0,0-1.46-2.25A6.46,6.46,0,0,0,60,151.83a5.72,5.72,0,0,0-2.42-.52,6.17,6.17,0,0,0-4.58,2A6.46,6.46,0,0,0,51.08,158a6.5,6.5,0,0,0,6.49,6.49,6.14,6.14,0,0,0,3.39-1,6.24,6.24,0,0,0,2.33-2.75,7.5,7.5,0,0,0,.8-2.88C64.09,157.72,64,157.66,63.88,157.66Zm-2.54,4.47a5.51,5.51,0,0,1-3.77,1.44A5.65,5.65,0,0,1,52,158a5.64,5.64,0,0,1,1.65-4,5.4,5.4,0,0,1,7.41-.45,5.93,5.93,0,0,1,2,3.27l-4.16.28a1.51,1.51,0,0,0-1.32-.68A1.66,1.66,0,0,0,55.94,158a1.49,1.49,0,0,0,.49,1.13,1.55,1.55,0,0,0,1.14.47,1.55,1.55,0,0,0,1.56-1.18l4,0A5.45,5.45,0,0,1,61.34,162.13Zm-2.85-4.32a1.27,1.27,0,0,1-.26.59.77.77,0,0,1-.66.4.88.88,0,0,1-.61-.25.83.83,0,0,1-.26-.6.87.87,0,0,1,.26-.62.85.85,0,0,1,.61-.26,1,1,0,0,1,.64.25A.68.68,0,0,1,58.49,157.81Z"/><path class="cls-3" d="M63.17,158.42A5.62,5.62,0,0,1,52,158a5.64,5.64,0,0,1,1.65-4,5.4,5.4,0,0,1,7.41-.45,5.93,5.93,0,0,1,2,3.27l-4.16.28a1.51,1.51,0,0,0-1.32-.68A1.66,1.66,0,0,0,55.94,158a1.49,1.49,0,0,0,.49,1.13,1.55,1.55,0,0,0,1.14.47,1.55,1.55,0,0,0,1.56-1.18Z"/><path class="cls-2" d="M71.15,151.52c-.11,0-.16,0-.16.15v7a.11.11,0,0,1-.12.12c-.06,0-.1,0-.1-.12v-7c0-.1,0-.15-.11-.15H65.18v7a5.78,5.78,0,0,0,1.66,4.19,5.82,5.82,0,0,0,8.17.07,6.4,6.4,0,0,0,1.55-4.57v-6.71Zm4.54,6.71a5.58,5.58,0,0,1-1.3,3.93,4.89,4.89,0,0,1-6.93-.06,4.93,4.93,0,0,1-1.41-3.56V152.4h4.06v6.23c0,.62.25.92.76.92s.78-.3.78-.92V152.4h4Z"/><path class="cls-3" d="M75.69,152.4v5.83a5.58,5.58,0,0,1-1.3,3.93,4.89,4.89,0,0,1-6.93-.06,4.93,4.93,0,0,1-1.41-3.56V152.4h4.06v6.23c0,.62.25.92.76.92s.78-.3.78-.92V152.4Z"/><path class="cls-2" d="M77.76,147.53v16.56h5.81V147.53Zm4.94,15.68H78.64v-14.8H82.7Z"/><rect class="cls-3" x="78.64" y="148.41" width="4.06" height="14.8"/><path class="cls-2" d="M95.55,153.08a6.44,6.44,0,0,0-4.8-1.77,6.55,6.55,0,0,0-4.62,11.15,6.4,6.4,0,0,0,4.69,1.86,5.84,5.84,0,0,0,1.35-.18,2.44,2.44,0,0,1,.66,0H97.3v-6.17A6.62,6.62,0,0,0,95.55,153.08Zm.87,10.13H92.36v-5a2,2,0,0,0-.44-1.36,1.37,1.37,0,0,0-1.1-.51,1.55,1.55,0,0,0-1.11.47,1.59,1.59,0,0,0-.47,1.14,1.45,1.45,0,0,0,.42,1.06,1.48,1.48,0,0,0,1.12.43,2,2,0,0,0,1-.26v4.18a5,5,0,0,1-.93.09,5.56,5.56,0,0,1-4.07-1.62,5.65,5.65,0,0,1,4-9.64,5.58,5.58,0,0,1,4.16,1.53,5.72,5.72,0,0,1,1.51,4.2ZM91.49,158a.44.44,0,0,1-.25.38,1.27,1.27,0,0,1-.6.14c-.35,0-.52-.21-.52-.62a.7.7,0,0,1,.21-.5.67.67,0,0,1,.49-.23.55.55,0,0,1,.49.3A1,1,0,0,1,91.49,158Z"/><path class="cls-3" d="M96.42,157.92v5.29H92.36v-5a2,2,0,0,0-.44-1.36,1.37,1.37,0,0,0-1.1-.51,1.55,1.55,0,0,0-1.11.47,1.59,1.59,0,0,0-.47,1.14,1.45,1.45,0,0,0,.42,1.06,1.48,1.48,0,0,0,1.12.43,2,2,0,0,0,1-.26v4.18a5,5,0,0,1-.93.09,5.56,5.56,0,0,1-4.07-1.62,5.65,5.65,0,0,1,4-9.64,5.58,5.58,0,0,1,4.16,1.53A5.72,5.72,0,0,1,96.42,157.92Z"/></g></g></svg>