<svg t="1649645383094" class="icon" viewBox="0 0 1024 1024" version="1.1" xmlns="http://www.w3.org/2000/svg" p-id="2009" width="200" height="200"><path d="M577.909484 577.05348h-126.907006c-41.453675 0-75.057412-33.603737-75.057412-75.057412v-150.010825c0-41.453675 33.603737-75.057412 75.057412-75.057412h126.907006c41.453675 0 75.059412 33.603737 75.059412 75.057412V501.996068c0 41.453675-33.605737 75.057412-75.059412 75.057412z" fill="#F58E6F" p-id="2010"></path><path d="M987.096279 1023.99198H36.891721a7.931938 7.931938 0 0 1-7.445942-5.193959 7.931938 7.931938 0 0 1 2.299982-8.783931l475.102279-404.81483a7.935938 7.935938 0 0 1 10.29192 0l475.102279 404.81483a7.931938 7.931938 0 0 1 2.299982 8.783931A7.931938 7.931938 0 0 1 987.096279 1023.99198z m-928.652727-15.871876h907.100896L511.994 621.669131 58.443552 1008.120104z" fill="#4A555F" p-id="2011"></path><path d="M108.727158 989.600249l403.266842-343.603308 403.266842 343.603308z" fill="#DFDFDF" p-id="2012"></path><path d="M36.891721 1023.99198a7.933938 7.933938 0 0 1-7.935938-7.937938v-620.47514a7.937938 7.937938 0 0 1 13.057898-6.065953L407.820816 698.300531a7.937938 7.937938 0 0 1 0.026 12.105905L42.039681 1022.097995a7.939938 7.939938 0 0 1-5.14796 1.893985z m7.937938-611.327212v586.201409L390.428952 704.394483 44.829659 412.664768z" fill="#4A555F" p-id="2013"></path><path d="M63.347514 452.530456l298.449662 251.932027-298.449662 254.298008z" fill="#DFDFDF" p-id="2014"></path><path d="M987.096279 1023.99198a7.933938 7.933938 0 0 1-5.14596-1.893985L616.143184 710.408436a7.931938 7.931938 0 0 1 0.026-12.105905L981.976319 389.514949a7.935938 7.935938 0 0 1 13.057898 6.065953v620.47714A7.937938 7.937938 0 0 1 987.096279 1023.99198zM633.561048 704.396483l345.599293 294.471694V412.664768L633.561048 704.396483z" fill="#4A555F" p-id="2015"></path><path d="M662.190824 704.462483l298.451662-251.932027v506.230035z" fill="#DFDFDF" p-id="2016"></path><path d="M402.724856 712.306421a7.925938 7.925938 0 0 1-5.11996-1.871985L130.784986 485.1982a7.927938 7.927938 0 0 1-2.815978-6.063953V229.138205a7.937938 7.937938 0 0 1 7.935938-7.935937h752.208108a7.937938 7.937938 0 0 1 7.935938 7.935937v249.996042a7.925938 7.925938 0 0 1-2.815978 6.063953L626.411104 710.434436a7.931938 7.931938 0 0 1-10.26592-0.024L511.98 621.675131l-104.107184 88.733305a7.919938 7.919938 0 0 1-5.14796 1.897985z m109.255144-108.993146a7.919938 7.919938 0 0 1 5.14596 1.893985l104.191184 88.755305L880.177116 475.448276V237.074143H143.842883v238.372133l258.855973 218.514289 104.133184-88.753305a7.923938 7.923938 0 0 1 5.14796-1.893985z" fill="#4A555F" p-id="2017"></path><path d="M611.793218 542.873748H476.420279c-42.13567 0-76.419401-34.279732-76.419402-76.415401v-87.123318c0-42.13567 34.281732-76.415402 76.419402-76.415401h66.895476c42.13567 0 76.413402 34.279732 76.413401 76.415401v83.431347c0 18.431856-14.993883 33.427738-33.423738 33.427738-19.541847 0-36.549714-11.065913-45.085647-27.259787-6.34995 9.049929-13.727892 17.565862-25.435801 22.595823-16.735869 7.197944-36.757712 5.439957-49.80961-4.375965-10.137921-7.62794-21.891829-22.503824-20.31184-50.037609 2.427981-42.367668 24.641807-70.615447 62.54551-79.545377 10.333919-2.435981 21.091835-0.016 29.503769 6.643948a35.483722 35.483722 0 0 1 13.541894 27.971781v53.081585c0 19.325849 15.723877 35.051725 35.051725 35.051725 9.677924 0 17.551863-7.873938 17.551863-17.553862v-83.431347c0-33.383739-27.157787-60.543526-60.541526-60.543526H476.420279c-33.383739 0-60.545526 27.159787-60.545526 60.543526v87.123318c0 33.383739 27.161787 60.541526 60.545526 60.541526h135.372939v15.873875z m-95.67525-170.350666a18.599854 18.599854 0 0 0-4.273967 0.497996c-31.347754 7.385942-48.285622 29.255771-50.341606 65.003491-0.939993 16.475871 3.77197 28.739775 14.017891 36.447715 8.509933 6.40395 22.491824 7.419942 33.997733 2.473981 10.437918-4.485965 16.415871-13.527894 23.333818-23.995813 0.883993-1.33199 1.761986-2.665979 2.659979-3.995968a51.0756 51.0756 0 0 1-0.133999-3.685971v-53.081585a19.713846 19.713846 0 0 0-7.523941-15.529878 18.873852 18.873852 0 0 0-11.735908-4.133968zM135.906946 487.080185a7.939938 7.939938 0 0 1-5.11996-1.871985l-98.993225-83.541346a7.933938 7.933938 0 0 1 0.103999-12.211904l98.993225-80.791367a7.945938 7.945938 0 0 1 8.421934-1.021992 7.943938 7.943938 0 0 1 4.531964 7.169943v164.332713a7.937938 7.937938 0 0 1-7.937937 7.935938z m-86.567322-91.375284l78.629384 66.35748v-130.530978l-78.629384 64.173498zM783.085877 237.084143H240.876123a7.935938 7.935938 0 0 1-5.01596-14.08389L506.962039 1.787986a7.931938 7.931938 0 0 1 10.033922 0L788.103838 222.998253a7.935938 7.935938 0 1 1-5.017961 14.08589z m-519.929928-15.871876h497.650102L511.98 18.179858 263.155949 221.212267z" fill="#4A555F" p-id="2018"></path><path d="M315.141542 202.692413l196.836458-160.610743 196.840459 160.610743z" fill="#DFDFDF" p-id="2019"></path><path d="M888.115054 487.080185a7.933938 7.933938 0 0 1-7.937938-7.935938v-164.332713c0-3.065976 1.767986-5.855954 4.531965-7.169943a7.941938 7.941938 0 0 1 8.421934 1.021992l98.993225 80.791367a7.929938 7.929938 0 0 1 0.103999 12.211904l-98.993225 83.541346a7.941938 7.941938 0 0 1-5.11996 1.871985z m7.935938-155.548782v130.530978l78.629384-66.35748-78.629384-64.173498z" fill="#4A555F" p-id="2020"></path></svg>